<svg xmlns="http://www.w3.org/2000/svg" xmlns:xlink="http://www.w3.org/1999/xlink" viewBox="20,70,256,100" width="120px" height="40px"><g transform="translate(96,96) scale(0.25,0.25)"><g fill="#ffffff" fill-rule="nonzero" stroke="none" stroke-width="1" stroke-linecap="butt" stroke-linejoin="miter" stroke-miterlimit="10" stroke-dasharray="" stroke-dashoffset="0" font-family="none" font-weight="none" font-size="none" text-anchor="none" style="mix-blend-mode: normal"><path d="M-384,640v-1024h1024v1024z" id="bgRectangle"></path></g><g fill-opacity="0" fill="#000000" fill-rule="nonzero" stroke="none" stroke-width="1" stroke-linecap="butt" stroke-linejoin="miter" stroke-miterlimit="10" stroke-dasharray="" stroke-dashoffset="0" font-family="none" font-weight="none" font-size="none" text-anchor="none" style="mix-blend-mode: normal"><path d="M-384,640v-1024h1024v1024z" id="shape"></path></g><g fill="none" fill-rule="nonzero" stroke="none" stroke-width="1" stroke-linecap="butt" stroke-linejoin="miter" stroke-miterlimit="10" stroke-dasharray="" stroke-dashoffset="0" font-family="none" font-weight="none" font-size="none" text-anchor="none" style="mix-blend-mode: normal"><g transform="translate(-341.33333,-25.6) scale(2.13333,2.13333)"><path d="M107.145,55h-7.145h-12.431h-27.569v18h27.569c-1.852,5.677 -5.408,10.585 -10.063,14.118c-4.864,3.691 -10.928,5.882 -17.506,5.882c-12.574,0 -23.278,-8.002 -27.299,-19.191c-1.101,-3.064 -1.701,-6.366 -1.701,-9.809c0,-3.839 0.746,-7.505 2.101,-10.858c4.298,-10.637 14.722,-18.142 26.899,-18.142c7.365,0 14.083,2.75 19.198,7.273l13.699,-13.21c-8.592,-8.094 -20.161,-13.063 -32.897,-13.063c-18.422,0 -34.419,10.377 -42.466,25.605c-3.534,6.686 -5.534,14.307 -5.534,22.395c0,7.882 1.9,15.32 5.267,21.882c7.956,15.507 24.105,26.118 42.733,26.118c12.382,0 23.668,-4.688 32.182,-12.386c9.714,-8.783 15.818,-21.486 15.818,-35.614c0,-3.078 -0.301,-6.083 -0.855,-9z" fill="#000000" opacity="0.35"></path><path d="M17.267,81.882c7.956,15.507 24.105,26.118 42.733,26.118c12.382,0 23.668,-4.688 32.182,-12.386l-14.676,-12.496c-4.864,3.691 -10.929,5.882 -17.506,5.882c-12.574,0 -23.278,-8.002 -27.299,-19.191z" fill="#44bf00"></path><path d="M77.506,83.118c-0.684,0.553 -1.685,1.158 -2.398,1.638l14.711,12.846c0.807,-0.641 1.6,-1.298 2.363,-1.988z" fill="#000000" opacity="0.35"></path><path d="M92.182,95.614c9.714,-8.784 15.818,-21.486 15.818,-35.614c0,-3.078 -0.301,-6.083 -0.855,-9h-7.145h-12.431h-27.569v18h27.569c-1.852,5.677 -5.408,10.585 -10.063,14.118z" fill="#0075ff"></path><path d="M32.701,69.809l-15.434,12.073c0.486,0.948 1.004,1.877 1.551,2.787l15.3,-11.576c-0.488,-0.912 -1.068,-2.289 -1.417,-3.284z" fill="#000000" opacity="0.35"></path><path d="M17.267,81.882c-3.367,-6.562 -5.267,-14 -5.267,-21.882c0,-8.088 2,-15.709 5.534,-22.395l15.568,11.537c-1.356,3.354 -2.102,7.019 -2.102,10.858c0,3.443 0.6,6.745 1.701,9.809z" fill="#ffc400"></path><path d="M17.534,37.605c-0.482,0.844 -1.169,2.36 -1.564,3.251l16.059,11.491c0.299,-1.095 0.653,-2.167 1.072,-3.205z" fill="#000000" opacity="0.35"></path><path d="M33.101,49.142c4.298,-10.637 14.722,-18.142 26.899,-18.142c7.365,0 14.083,2.75 19.198,7.273l13.699,-13.21c-8.592,-8.094 -20.161,-13.063 -32.897,-13.063c-18.422,0 -34.419,10.377 -42.466,25.605z" fill="#ff1200"></path></g></g><g fill="#000000" fill-rule="nonzero" stroke="none" stroke-width="1" stroke-linecap="butt" stroke-linejoin="miter" stroke-miterlimit="10" stroke-dasharray="" stroke-dashoffset="0" font-family="none" font-weight="none" font-size="none" text-anchor="none" style="mix-blend-mode: normal"><g><path d="M-49.65,100.56667v-5.52h27.58v36.14c-1.25333,0.94 -2.76,1.8 -4.52,2.58c-1.76,0.78667 -3.63667,1.45333 -5.63,2c-1.99333,0.54667 -4.06667,0.95667 -6.22,1.23c-2.15333,0.27333 -4.24667,0.41 -6.28,0.41v0c-5.24,0 -10.05,-0.84 -14.43,-2.52c-4.38,-1.68 -8.17333,-4.26333 -11.38,-7.75c-3.20667,-3.48 -5.71,-7.89667 -7.51,-13.25c-1.8,-5.36 -2.7,-11.67667 -2.7,-18.95v0c0,-7.58667 1.09667,-14.08 3.29,-19.48c2.18667,-5.4 5.04,-9.8 8.56,-13.2c3.52,-3.4 7.47,-5.88333 11.85,-7.45c4.38,-1.56667 8.76,-2.35 13.14,-2.35v0c4.69333,0 8.56667,0.25333 11.62,0.76c3.05333,0.51333 5.63333,1.2 7.74,2.06v0l-2.46,8.56c-3.75333,-1.8 -9.11333,-2.7 -16.08,-2.7v0c-3.28,0 -6.54333,0.57 -9.79,1.71c-3.24667,1.13333 -6.16,3.03 -8.74,5.69c-2.58667,2.66 -4.7,6.14 -6.34,10.44c-1.64,4.3 -2.46,9.62 -2.46,15.96v0c0,5.78667 0.66333,10.79333 1.99,15.02c1.33333,4.22 3.19,7.72 5.57,10.5c2.38667,2.77333 5.26333,4.84667 8.63,6.22c3.36,1.36667 7.03667,2.05 11.03,2.05v0c5.00667,0 9.27,-0.97667 12.79,-2.93v0v-22.88zM-9.75,106.66667v0c0,-9.93333 2.21,-17.54 6.63,-22.82c4.42,-5.28 10.77333,-7.92 19.06,-7.92v0c4.38,0 8.19333,0.72333 11.44,2.17c3.24667,1.44667 5.92667,3.52 8.04,6.22c2.11333,2.7 3.67667,5.94667 4.69,9.74c1.02,3.79333 1.53,7.99667 1.53,12.61v0c0,9.93333 -2.21,17.54 -6.63,22.82c-4.42,5.28 -10.77667,7.92 -19.07,7.92v0c-4.38,0 -8.19333,-0.72333 -11.44,-2.17c-3.24667,-1.44667 -5.92333,-3.52 -8.03,-6.22c-2.11333,-2.7 -3.68,-5.94667 -4.7,-9.74c-1.01333,-3.79333 -1.52,-7.99667 -1.52,-12.61zM-0.01,106.66667v0c0,2.97333 0.29333,5.83 0.88,8.57c0.58667,2.73333 1.50333,5.11667 2.75,7.15c1.25333,2.03333 2.89667,3.67667 4.93,4.93c2.03333,1.25333 4.49667,1.88 7.39,1.88v0c10.64,0.08 15.96,-7.43 15.96,-22.53v0c0,-3.05333 -0.29333,-5.94667 -0.88,-8.68c-0.58667,-2.74 -1.50667,-5.12667 -2.76,-7.16c-1.24667,-2.03333 -2.88667,-3.65667 -4.92,-4.87c-2.04,-1.21333 -4.50667,-1.82 -7.4,-1.82v0c-10.63333,-0.08 -15.95,7.43 -15.95,22.53zM53.14,106.66667v0c0,-9.93333 2.21,-17.54 6.63,-22.82c4.42,-5.28 10.77333,-7.92 19.06,-7.92v0c4.38,0 8.19333,0.72333 11.44,2.17c3.24667,1.44667 5.92667,3.52 8.04,6.22c2.11333,2.7 3.67667,5.94667 4.69,9.74c1.02,3.79333 1.53,7.99667 1.53,12.61v0c0,9.93333 -2.21,17.54 -6.63,22.82c-4.42,5.28 -10.77667,7.92 -19.07,7.92v0c-4.38,0 -8.19333,-0.72333 -11.44,-2.17c-3.24667,-1.44667 -5.92333,-3.52 -8.03,-6.22c-2.11333,-2.7 -3.68,-5.94667 -4.7,-9.74c-1.01333,-3.79333 -1.52,-7.99667 -1.52,-12.61zM62.88,106.66667v0c0,2.97333 0.29333,5.83 0.88,8.57c0.58667,2.73333 1.50333,5.11667 2.75,7.15c1.25333,2.03333 2.89667,3.67667 4.93,4.93c2.03333,1.25333 4.49667,1.88 7.39,1.88v0c10.64,0.08 15.96,-7.43 15.96,-22.53v0c0,-3.05333 -0.29333,-5.94667 -0.88,-8.68c-0.58667,-2.74 -1.50667,-5.12667 -2.76,-7.16c-1.24667,-2.03333 -2.88667,-3.65667 -4.92,-4.87c-2.03333,-1.21333 -4.5,-1.82 -7.4,-1.82v0c-10.63333,-0.08 -15.95,7.43 -15.95,22.53zM164.25,79.79667v58.9c0,7.58667 -2.01333,13.18 -6.04,16.78c-4.02667,3.6 -9.99,5.4 -17.89,5.4v0c-4.69333,0 -8.47,-0.29333 -11.33,-0.88c-2.85333,-0.58667 -5.29667,-1.35 -7.33,-2.29v0l2.46,-7.98c1.8,0.70667 3.79667,1.37333 5.99,2c2.18667,0.62 5.04,0.93 8.56,0.93v0c3.28667,0 5.96667,-0.29333 8.04,-0.88c2.07333,-0.58667 3.73667,-1.56333 4.99,-2.93c1.25333,-1.36667 2.11333,-3.12667 2.58,-5.28c0.46667,-2.15333 0.7,-4.71333 0.7,-7.68v0v-5.64h-0.47c-1.56,2.27333 -3.55333,4.01667 -5.98,5.23c-2.42667,1.20667 -5.59333,1.81 -9.5,1.81v0c-7.9,0 -13.71,-2.46333 -17.43,-7.39c-3.71333,-4.92667 -5.57,-12.59333 -5.57,-23v0c0,-10.00667 2.38667,-17.61333 7.16,-22.82c4.76667,-5.2 11.80667,-7.8 21.12,-7.8v0c4.45333,0 8.26667,0.35333 11.44,1.06c3.16667,0.7 6,1.52 8.5,2.46zM140.67,129.07667v0c3.98667,0 7.11667,-0.99667 9.39,-2.99c2.26667,-1.99333 3.87,-5.10333 4.81,-9.33v0v-30.04c-3.13333,-1.48667 -7.12333,-2.23 -11.97,-2.23v0c-5.32,0 -9.50667,1.8 -12.56,5.4c-3.04667,3.6 -4.57,9.23333 -4.57,16.9v0c0,3.28667 0.27333,6.29667 0.82,9.03c0.54667,2.74 1.40667,5.08667 2.58,7.04c1.17333,1.96 2.7,3.48667 4.58,4.58c1.87333,1.09333 4.18,1.64 6.92,1.64zM192.76,53.86667v67.7c0,2.74 0.47,4.69667 1.41,5.87c0.94,1.17333 2.27,1.76 3.99,1.76v0c1.02,0 2.11667,-0.08 3.29,-0.24c1.17333,-0.15333 2.50333,-0.50333 3.99,-1.05v0l1.05,7.39c-1.24667,0.62667 -2.98667,1.13333 -5.22,1.52c-2.22667,0.39333 -4.16333,0.59 -5.81,0.59v0c-3.52,0 -6.41333,-0.99667 -8.68,-2.99c-2.26667,-1.99333 -3.4,-5.37667 -3.4,-10.15v0v-70.4zM255.89,124.49667l3.52,6.81c-2.34667,1.88 -5.3,3.36667 -8.86,4.46c-3.56,1.09333 -7.33333,1.64 -11.32,1.64v0c-4.46,0 -8.33333,-0.72333 -11.62,-2.17c-3.28667,-1.44667 -5.98333,-3.52 -8.09,-6.22c-2.11333,-2.7 -3.68,-5.92667 -4.7,-9.68c-1.01333,-3.75333 -1.52,-7.97667 -1.52,-12.67v0c0,-10.01333 2.23,-17.64 6.69,-22.88c4.45333,-5.24 10.82667,-7.86 19.12,-7.86v0c2.66,0 5.32,0.29333 7.98,0.88c2.66,0.58667 5.04667,1.7 7.16,3.34c2.11333,1.64667 3.83333,3.97333 5.16,6.98c1.32667,3.01333 1.99,6.98333 1.99,11.91v0c0,2.58667 -0.23333,5.44333 -0.7,8.57v0h-37.66c0,3.44 0.35,6.49 1.05,9.15c0.70667,2.66 1.80333,4.91 3.29,6.75c1.48667,1.83333 3.42333,3.24 5.81,4.22c2.38,0.98 5.29333,1.47 8.74,1.47v0c2.66,0 5.32,-0.47 7.98,-1.41c2.66,-0.94 4.65333,-2.03667 5.98,-3.29zM239.23,84.13667v0c-4.61333,0 -8.31,1.21333 -11.09,3.64c-2.77333,2.42667 -4.43667,6.57333 -4.99,12.44v0h29.1c0,-5.94667 -1.13333,-10.11333 -3.4,-12.5c-2.26667,-2.38667 -5.47333,-3.58 -9.62,-3.58zM330.16,53.86667v8.68h-25.58v73.45h-9.74v-73.45h-25.57v-8.68zM365.6,124.49667l3.52,6.81c-2.34667,1.88 -5.3,3.36667 -8.86,4.46c-3.56,1.09333 -7.33333,1.64 -11.32,1.64v0c-4.46,0 -8.33333,-0.72333 -11.62,-2.17c-3.28667,-1.44667 -5.98667,-3.52 -8.1,-6.22c-2.10667,-2.7 -3.67,-5.92667 -4.69,-9.68c-1.02,-3.75333 -1.53,-7.97667 -1.53,-12.67v0c0,-10.01333 2.23,-17.64 6.69,-22.88c4.46,-5.24 10.83667,-7.86 19.13,-7.86v0c2.66,0 5.32,0.29333 7.98,0.88c2.66,0.58667 5.04333,1.7 7.15,3.34c2.11333,1.64667 3.83667,3.97333 5.17,6.98c1.32667,3.01333 1.99,6.98333 1.99,11.91v0c0,2.58667 -0.23333,5.44333 -0.7,8.57v0h-37.67c0,3.44 0.35333,6.49 1.06,9.15c0.70667,2.66 1.8,4.91 3.28,6.75c1.48667,1.83333 3.42333,3.24 5.81,4.22c2.38667,0.98 5.3,1.47 8.74,1.47v0c2.66,0 5.32,-0.47 7.98,-1.41c2.66,-0.94 4.65667,-2.03667 5.99,-3.29zM348.94,84.13667v0c-4.62,0 -8.31667,1.21333 -11.09,3.64c-2.78,2.42667 -4.44333,6.57333 -4.99,12.44v0h29.1c0,-5.94667 -1.13333,-10.11333 -3.4,-12.5c-2.27333,-2.38667 -5.48,-3.58 -9.62,-3.58zM411.71,120.04667v0c0,-2.34667 -0.70333,-4.18667 -2.11,-5.52c-1.41333,-1.32667 -3.15333,-2.44 -5.22,-3.34c-2.07333,-0.9 -4.34333,-1.76 -6.81,-2.58c-2.46667,-0.82667 -4.73667,-1.88333 -6.81,-3.17c-2.06667,-1.29333 -3.80667,-2.95667 -5.22,-4.99c-1.40667,-2.03333 -2.11,-4.77 -2.11,-8.21v0c0,-5.63333 1.60333,-9.76 4.81,-12.38c3.20667,-2.62 7.66667,-3.93 13.38,-3.93v0c4.22,0 7.76,0.37 10.62,1.11c2.85333,0.74667 5.33667,1.62667 7.45,2.64v0l-2.23,7.75c-1.8,-0.86 -3.97,-1.62333 -6.51,-2.29c-2.54667,-0.66667 -5.26667,-1 -8.16,-1v0c-3.44,0 -5.96333,0.58667 -7.57,1.76c-1.6,1.17333 -2.4,3.20667 -2.4,6.1v0c0,2.03333 0.70333,3.62 2.11,4.76c1.40667,1.13333 3.14667,2.15 5.22,3.05c2.07333,0.9 4.34333,1.78 6.81,2.64c2.46,0.86 4.72667,1.99333 6.8,3.4c2.07333,1.40667 3.81333,3.18667 5.22,5.34c1.41333,2.14667 2.12,4.98 2.12,8.5v0c0,2.50667 -0.41333,4.85333 -1.24,7.04c-0.82,2.19333 -2.09,4.07333 -3.81,5.64c-1.72,1.56 -3.85,2.79 -6.39,3.69c-2.54667,0.9 -5.54,1.35 -8.98,1.35v0c-4.46,0 -8.25333,-0.43 -11.38,-1.29c-3.13333,-0.86 -5.75333,-1.87667 -7.86,-3.05v0l2.81,-7.98c1.8,1.02 4.14667,1.96 7.04,2.82c2.89333,0.86 5.82667,1.29 8.8,1.29v0c3.36667,0 6.14333,-0.66667 8.33,-2c2.19333,-1.32667 3.29,-3.71 3.29,-7.15zM427.55,85.54667v-8.21h9.15v-11.62l9.39,-2.7v14.32h15.95v8.21h-15.95v32.5c0,4.06667 0.50667,6.94333 1.52,8.63c1.02,1.68 2.74333,2.52 5.17,2.52v0c2.03333,0 3.75333,-0.21667 5.16,-0.65c1.40667,-0.42667 2.97,-0.99333 4.69,-1.7v0l2.11,7.16c-2.10667,1.01333 -4.41333,1.83333 -6.92,2.46c-2.5,0.62667 -5.2,0.94 -8.1,0.94v0c-4.76667,0 -8.13,-1.35 -10.09,-4.05c-1.95333,-2.69333 -2.93,-7.21 -2.93,-13.55v0v-34.26z"></path></g></g></g></svg>